<svg xmlns="http://www.w3.org/2000/svg" width="244" height="64" viewBox="0 0 244 64" fill="none">
  <rect x="2" y="8" width="62" height="48" rx="18" fill="url(#paint0_linear_1_1)"/>
  <path d="M19 24.5C19 22.567 20.567 21 22.5 21H43.5C45.433 21 47 22.567 47 24.5V39.5C47 41.433 45.433 43 43.5 43H22.5C20.567 43 19 41.433 19 39.5V24.5Z" fill="white" fill-opacity="0.18"/>
  <path d="M18 26.5L48 26.5" stroke="white" stroke-opacity="0.32" stroke-width="2"/>
  <path d="M26.474 38V26.364H31.096C32.068 26.364 32.858 26.526 33.466 26.85C34.074 27.174 34.523 27.62 34.813 28.188C35.103 28.756 35.248 29.404 35.248 30.132C35.248 30.868 35.101 31.514 34.807 32.07C34.513 32.622 34.06 33.052 33.448 33.36C32.84 33.668 32.054 33.822 31.09 33.822H28.07V31.848H30.692C31.236 31.848 31.687 31.774 32.045 31.626C32.403 31.478 32.669 31.256 32.843 30.96C33.021 30.664 33.11 30.388 33.11 30.132C33.11 29.872 33.021 29.592 32.843 29.292C32.669 28.992 32.401 28.766 32.039 28.614C31.681 28.458 31.228 28.38 30.68 28.38H28.846V38H26.474ZM37.1645 38V26.364H39.5365V35.978H44.5305V38H37.1645Z" fill="white"/>
  <path d="M84.4 22.32H104.216C108.504 22.32 111.72 24.632 111.72 28.808C111.72 31.568 110.176 33.6 107.64 34.416V34.64C110.848 35.184 112.76 37.52 112.76 40.896C112.76 46 108.496 48.68 102.776 48.68H84.4V22.32ZM101.72 32.696C104.176 32.696 105.496 31.6 105.496 29.648C105.496 27.696 104.176 26.68 101.72 26.68H90.592V32.696H101.72ZM102.264 44.32C105 44.32 106.504 43.104 106.504 40.976C106.504 38.768 105 37.496 102.264 37.496H90.592V44.32H102.264ZM116.523 35.52C116.523 27.224 121.835 21.704 130.187 21.704C138.483 21.704 143.827 27.224 143.827 35.52C143.827 43.776 138.483 49.296 130.187 49.296C121.835 49.296 116.523 43.776 116.523 35.52ZM137.523 35.52C137.523 30.2 134.787 26.768 130.187 26.768C125.531 26.768 122.803 30.2 122.803 35.52C122.803 40.8 125.531 44.232 130.187 44.232C134.787 44.232 137.523 40.8 137.523 35.52ZM145.106 22.32H151.61L156.018 42.208H156.242L161.69 22.32H168.194L173.642 42.208H173.866L178.274 22.32H184.634L178.018 48.68H170.77L165.01 28.792H164.786L159.026 48.68H151.778L145.106 22.32ZM188.33 22.32H194.522V48.68H188.33V22.32ZM199.498 22.32H220.922V26.936H205.69V32.976H219.746V37.496H205.69V48.68H199.498V22.32ZM225.506 22.32H231.698V48.68H225.506V22.32Z" fill="#111827"/>
  <path d="M84.912 54V51.53H85.688L87.604 57.404H87.634L89.55 51.53H90.338V54H89.766V52.216H89.736L87.886 58H87.346L85.502 52.216H85.466V54H84.912ZM93.4359 58.12C92.9359 58.12 92.5165 58.0033 92.1779 57.77C91.8425 57.5333 91.5899 57.205 91.4199 56.785C91.2532 56.3617 91.1699 55.8683 91.1699 55.305C91.1699 54.7483 91.2532 54.2583 91.4199 53.835C91.5899 53.4117 91.8425 53.0817 92.1779 52.845C92.5165 52.605 92.9359 52.485 93.4359 52.485C93.9359 52.485 94.3535 52.605 94.6889 52.845C95.0275 53.0817 95.2802 53.4117 95.4469 53.835C95.6169 54.2583 95.7019 54.7483 95.7019 55.305C95.7019 55.8683 95.6169 56.3617 95.4469 56.785C95.2802 57.205 95.0275 57.5333 94.6889 57.77C94.3535 58.0033 93.9359 58.12 93.4359 58.12ZM93.4359 57.578C93.8159 57.578 94.1242 57.478 94.3609 57.278C94.6009 57.078 94.7775 56.8083 94.8909 56.469C95.0075 56.129 95.0659 55.741 95.0659 55.305C95.0659 54.8723 95.0075 54.4877 94.8909 54.151C94.7775 53.8117 94.6009 53.5437 94.3609 53.347C94.1242 53.147 93.8159 53.047 93.4359 53.047C93.0559 53.047 92.7459 53.147 92.5059 53.347C92.2692 53.5437 92.0925 53.8117 91.9759 54.151C91.8625 54.4877 91.8059 54.8723 91.8059 55.305C91.8059 55.741 91.8625 56.129 91.9759 56.469C92.0925 56.8083 92.2692 57.078 92.5059 57.278C92.7459 57.478 93.0559 57.578 93.4359 57.578Z" fill="#6B7280"/>
  <defs>
    <linearGradient id="paint0_linear_1_1" x1="2" y1="8" x2="64" y2="56" gradientUnits="userSpaceOnUse">
      <stop stop-color="#F43F5E"/>
      <stop offset="1" stop-color="#E11D48"/>
    </linearGradient>
  </defs>
</svg>
