<svg version="1.1" id="Layer_1" xmlns="http://www.w3.org/2000/svg" xmlns:xlink="http://www.w3.org/1999/xlink" x="0px" y="0px"
	 width="100%" viewBox="0 0 80 80" enable-background="new 0 0 80 80" xml:space="preserve">
<path fill="#FEFEFE" opacity="1.000000" stroke="none" 
	d="
M46.000000,81.000000 
	C30.666666,81.000000 15.833333,81.000000 1.000000,81.000000 
	C1.000000,54.333332 1.000000,27.666666 1.000000,1.000000 
	C27.666666,1.000000 54.333332,1.000000 81.000000,1.000000 
	C81.000000,27.666666 81.000000,54.333332 81.000000,81.000000 
	C69.500000,81.000000 58.000000,81.000000 46.000000,81.000000 
M71.239365,74.753204 
	C73.822556,75.077560 75.198708,74.433456 75.092896,71.333237 
	C74.871567,64.848877 75.230881,58.341702 74.915016,51.865200 
	C74.804825,49.605892 73.409538,47.409260 72.601135,45.184002 
	C72.310364,45.243362 72.019585,45.302719 71.728813,45.362080 
	C70.696007,41.791679 69.663200,38.221279 68.560760,34.410156 
	C63.906780,34.410156 59.644245,34.410156 55.300343,34.410156 
	C54.423885,29.545683 56.534584,24.167931 51.479877,20.493610 
	C50.328362,23.217253 49.271824,25.716244 48.134754,28.405718 
	C43.423962,28.405718 38.500641,28.405718 33.954266,28.405718 
	C32.679394,25.571085 31.539364,23.036270 30.399336,20.501457 
	C29.846508,20.535154 29.293680,20.568851 28.740850,20.602551 
	C27.885618,25.207968 27.030384,29.813385 26.116617,34.733997 
	C21.902384,34.733997 17.622360,34.733997 13.192200,34.733997 
	C12.155609,38.666054 11.191171,42.324409 10.372238,45.430832 
	C9.106346,46.749573 7.154292,47.831047 7.118865,48.972031 
	C6.857080,57.403500 6.977176,65.846817 6.977176,74.753357 
	C28.426291,74.753357 49.358562,74.753357 71.239365,74.753204 
z"/>
<path fill="#43575C" opacity="1.000000" stroke="none" 
	d="
M70.765099,74.753281 
	C49.358562,74.753357 28.426291,74.753357 6.977176,74.753357 
	C6.977176,65.846817 6.857080,57.403500 7.118865,48.972031 
	C7.154292,47.831047 9.106346,46.749573 10.372238,45.430832 
	C11.191171,42.324409 12.155609,38.666054 13.192200,34.733997 
	C17.622360,34.733997 21.902384,34.733997 26.116617,34.733997 
	C27.030384,29.813385 27.885618,25.207968 28.740850,20.602551 
	C29.293680,20.568851 29.846508,20.535154 30.399336,20.501457 
	C31.539364,23.036270 32.679394,25.571085 33.954266,28.405718 
	C38.500641,28.405718 43.423962,28.405718 48.134754,28.405718 
	C49.271824,25.716244 50.328362,23.217253 51.479877,20.493610 
	C56.534584,24.167931 54.423885,29.545683 55.300343,34.410156 
	C59.644245,34.410156 63.906780,34.410156 68.560760,34.410156 
	C69.663200,38.221279 70.696007,41.791679 71.728813,45.362080 
	C72.019585,45.302719 72.310364,45.243362 72.601135,45.184002 
	C73.409538,47.409260 74.804825,49.605892 74.915016,51.865200 
	C75.230881,58.341702 74.871567,64.848877 75.092896,71.333237 
	C75.198708,74.433456 73.822556,75.077560 70.765099,74.753281 
M47.031631,61.713711 
	C47.035469,64.374664 46.864174,67.053749 47.136726,69.686890 
	C47.234070,70.627357 48.405666,71.456627 49.086929,72.336655 
	C49.708138,71.564926 50.852665,70.803848 50.868633,70.019791 
	C51.009766,63.090527 50.950554,56.157177 50.950554,49.229843 
	C43.994350,49.229843 37.640846,49.229843 31.040503,49.229843 
	C31.040503,56.287468 30.965488,62.925964 31.125483,69.558792 
	C31.148159,70.498878 32.314373,71.411392 32.951309,72.336662 
	C33.620075,71.443878 34.777637,70.596527 34.865662,69.649750 
	C35.126297,66.846382 34.956352,64.003723 34.970196,61.176498 
	C34.998779,55.337410 36.888084,52.611805 41.045132,52.813457 
	C46.104809,53.058899 47.239788,56.474754 47.031631,61.713711 
M37.015274,61.756847 
	C37.015274,65.337410 37.015274,68.917969 37.015274,72.399864 
	C40.077732,72.399864 42.342598,72.399864 44.984509,72.399864 
	C44.984509,68.311577 44.979572,64.508690 44.986149,60.705826 
	C44.990952,57.927185 44.940342,54.968403 41.198978,54.897121 
	C37.226032,54.821434 36.891857,57.780464 37.015274,61.756847 
M10.975608,63.731026 
	C10.834450,60.060600 11.504286,56.803528 16.089746,56.868591 
	C20.697784,56.933975 21.126347,60.293461 21.038294,63.903126 
	C20.969238,66.734047 21.024443,69.568001 21.024443,72.400612 
	C21.510969,72.382942 21.997498,72.365280 22.484024,72.347610 
	C22.484024,66.615662 22.484024,60.883717 22.484024,55.071560 
	C18.037085,55.071560 13.789078,55.071560 9.646436,55.071560 
	C9.646436,61.035522 9.646436,66.709488 9.646436,72.383453 
	C10.089437,72.381851 10.532437,72.380241 10.975438,72.378632 
	C10.975438,69.798973 10.975438,67.219307 10.975608,63.731026 
M59.028679,57.700249 
	C59.028679,62.605328 59.028679,67.510406 59.028679,72.415489 
	C59.677914,72.395432 60.327152,72.375374 60.976387,72.355324 
	C60.976387,69.288116 61.022938,66.220024 60.964310,63.153942 
	C60.894932,59.525856 61.978184,56.773239 66.163689,56.858002 
	C70.043198,56.936565 71.097313,59.553307 71.035660,62.975491 
	C70.979073,66.116760 71.023651,69.259850 71.023651,72.402138 
	C71.521187,72.380844 72.018715,72.359558 72.516251,72.338264 
	C72.516251,66.594070 72.516251,60.849876 72.516251,54.806236 
	C68.781235,54.806236 65.297150,54.668392 61.836948,54.895138 
	C60.872204,54.958355 59.978081,56.099251 59.028679,57.700249 
M45.190403,38.773659 
	C46.439369,38.114388 47.688335,37.455112 48.937305,36.795841 
	C47.714191,36.120785 46.530045,34.967167 45.260380,34.863777 
	C41.950237,34.594246 38.594749,34.664524 35.275799,34.881489 
	C34.500366,34.932178 33.798164,36.103062 33.062267,36.758553 
	C33.799423,37.423965 34.496574,38.602516 35.280838,38.663654 
	C38.262627,38.896111 41.272564,38.767487 45.190403,38.773659 
M17.526577,40.749744 
	C16.113554,40.859940 14.700530,40.970135 13.231075,41.084728 
	C13.231075,43.069309 13.231075,44.646492 13.231075,46.511597 
	C16.492916,46.511597 19.513191,46.511597 22.668036,46.511597 
	C22.668036,44.520779 22.668036,42.827179 22.668036,40.966694 
	C21.046913,40.882801 19.757851,40.816093 17.526577,40.749744 
M60.870861,46.772083 
	C63.450077,46.772083 66.029289,46.772083 68.633759,46.772083 
	C68.633759,44.462906 68.633759,42.763596 68.633759,41.177013 
	C65.232094,41.177013 62.215405,41.177013 58.497856,41.177013 
	C59.099831,43.374973 59.545044,45.000565 60.870861,46.772083 
M14.689488,72.672333 
	C16.078577,72.579628 17.467665,72.486923 18.710045,72.404015 
	C18.710045,68.882545 18.710045,65.954292 18.710045,62.724445 
	C16.699305,62.816341 14.982952,62.894787 12.666290,63.000664 
	C13.088399,66.498299 13.453160,69.520737 14.689488,72.672333 
M65.522537,62.737129 
	C60.102974,65.136688 64.336029,69.247566 62.885075,72.763069 
	C65.394890,72.643188 66.989166,72.567039 68.979332,72.471977 
	C68.979332,69.717018 69.182037,67.244057 68.864334,64.839867 
	C68.759621,64.047447 67.309875,63.432762 65.522537,62.737129 
M28.969685,58.076332 
	C28.968857,55.919422 29.269512,53.701214 28.848330,51.629772 
	C28.614866,50.481567 27.174742,49.578712 26.278511,48.565269 
	C25.866247,48.903790 25.453983,49.242310 25.041719,49.580830 
	C25.041719,52.548706 24.944477,55.522011 25.109606,58.480671 
	C25.151258,59.226955 26.031841,59.926414 26.526905,60.647392 
	C27.333704,60.079449 28.140503,59.511501 28.969685,58.076332 
M53.153633,49.863586 
	C53.112431,52.512894 52.905098,55.175484 53.115299,57.804691 
	C53.194611,58.796684 54.239788,59.711460 54.844666,60.661434 
	C55.552517,59.814987 56.752598,59.031750 56.871025,58.109608 
	C57.164074,55.827736 57.266060,53.419731 56.807922,51.193481 
	C56.627174,50.315136 54.754402,49.784992 53.153633,49.863586 
M33.546085,40.796093 
	C28.946075,41.245232 31.733622,44.278969 31.181105,46.341782 
	C33.330605,46.341782 35.033737,46.341782 36.736874,46.341782 
	C37.104187,45.934788 37.471500,45.527794 37.838814,45.120796 
	C36.709305,43.678947 35.579796,42.237095 33.546085,40.796093 
M46.733711,46.711430 
	C52.122780,47.376125 51.332226,44.312813 50.354519,40.753677 
	C48.555321,40.870293 46.962463,40.973534 44.698490,41.120274 
	C45.163410,43.229885 45.529465,44.890881 46.733711,46.711430 
z"/>
<path fill="#3EF3E2" opacity="1.000000" stroke="none" 
	d="
M47.031597,61.252357 
	C47.239788,56.474754 46.104809,53.058899 41.045132,52.813457 
	C36.888084,52.611805 34.998779,55.337410 34.970196,61.176498 
	C34.956352,64.003723 35.126297,66.846382 34.865662,69.649750 
	C34.777637,70.596527 33.620075,71.443878 32.951309,72.336662 
	C32.314373,71.411392 31.148159,70.498878 31.125483,69.558792 
	C30.965488,62.925964 31.040503,56.287468 31.040503,49.229843 
	C37.640846,49.229843 43.994350,49.229843 50.950554,49.229843 
	C50.950554,56.157177 51.009766,63.090527 50.868633,70.019791 
	C50.852665,70.803848 49.708138,71.564926 49.086929,72.336655 
	C48.405666,71.456627 47.234070,70.627357 47.136726,69.686890 
	C46.864174,67.053749 47.035469,64.374664 47.031597,61.252357 
z"/>
<path fill="#F9FAFA" opacity="1.000000" stroke="none" 
	d="
M37.015312,61.298630 
	C36.891857,57.780464 37.226032,54.821434 41.198978,54.897121 
	C44.940342,54.968403 44.990952,57.927185 44.986149,60.705826 
	C44.979572,64.508690 44.984509,68.311577 44.984509,72.399864 
	C42.342598,72.399864 40.077732,72.399864 37.015274,72.399864 
	C37.015274,68.917969 37.015274,65.337410 37.015312,61.298630 
z"/>
<path fill="#3EF1E0" opacity="1.000000" stroke="none" 
	d="
M10.975523,64.185333 
	C10.975438,67.219307 10.975438,69.798973 10.975438,72.378632 
	C10.532437,72.380241 10.089437,72.381851 9.646436,72.383453 
	C9.646436,66.709488 9.646436,61.035522 9.646436,55.071560 
	C13.789078,55.071560 18.037085,55.071560 22.484024,55.071560 
	C22.484024,60.883717 22.484024,66.615662 22.484024,72.347610 
	C21.997498,72.365280 21.510969,72.382942 21.024443,72.400612 
	C21.024443,69.568001 20.969238,66.734047 21.038294,63.903126 
	C21.126347,60.293461 20.697784,56.933975 16.089746,56.868591 
	C11.504286,56.803528 10.834450,60.060600 10.975523,64.185333 
z"/>
<path fill="#3EF1E0" opacity="1.000000" stroke="none" 
	d="
M59.040115,57.223003 
	C59.978081,56.099251 60.872204,54.958355 61.836948,54.895138 
	C65.297150,54.668392 68.781235,54.806236 72.516251,54.806236 
	C72.516251,60.849876 72.516251,66.594070 72.516251,72.338264 
	C72.018715,72.359558 71.521187,72.380844 71.023651,72.402138 
	C71.023651,69.259850 70.979073,66.116760 71.035660,62.975491 
	C71.097313,59.553307 70.043198,56.936565 66.163689,56.858002 
	C61.978184,56.773239 60.894932,59.525856 60.964310,63.153942 
	C61.022938,66.220024 60.976387,69.288116 60.976387,72.355324 
	C60.327152,72.375374 59.677914,72.395432 59.028679,72.415489 
	C59.028679,67.510406 59.028679,62.605328 59.040115,57.223003 
z"/>
<path fill="#3EE7D7" opacity="1.000000" stroke="none" 
	d="
M44.731194,38.773743 
	C41.272564,38.767487 38.262627,38.896111 35.280838,38.663654 
	C34.496574,38.602516 33.799423,37.423965 33.062267,36.758553 
	C33.798164,36.103062 34.500366,34.932178 35.275799,34.881489 
	C38.594749,34.664524 41.950237,34.594246 45.260380,34.863777 
	C46.530045,34.967167 47.714191,36.120785 48.937305,36.795837 
	C47.688335,37.455112 46.439369,38.114388 44.731194,38.773743 
z"/>
<path fill="#3EDFD0" opacity="1.000000" stroke="none" 
	d="
M17.997683,40.749565 
	C19.757851,40.816093 21.046913,40.882801 22.668036,40.966694 
	C22.668036,42.827179 22.668036,44.520779 22.668036,46.511597 
	C19.513191,46.511597 16.492916,46.511597 13.231075,46.511597 
	C13.231075,44.646492 13.231075,43.069309 13.231075,41.084728 
	C14.700530,40.970135 16.113554,40.859940 17.997683,40.749565 
z"/>
<path fill="#3EDFD0" opacity="1.000000" stroke="none" 
	d="
M60.430561,46.699120 
	C59.545044,45.000565 59.099831,43.374973 58.497856,41.177013 
	C62.215405,41.177013 65.232094,41.177013 68.633759,41.177013 
	C68.633759,42.763596 68.633759,44.462906 68.633759,46.772083 
	C66.029289,46.772083 63.450077,46.772083 60.430561,46.699120 
z"/>
<path fill="#F8F8F8" opacity="1.000000" stroke="none" 
	d="
M14.253704,72.607758 
	C13.453160,69.520737 13.088399,66.498299 12.666290,63.000664 
	C14.982952,62.894787 16.699305,62.816341 18.710045,62.724445 
	C18.710045,65.954292 18.710045,68.882545 18.710045,72.404015 
	C17.467665,72.486923 16.078577,72.579628 14.253704,72.607758 
z"/>
<path fill="#F8F8F8" opacity="1.000000" stroke="none" 
	d="
M65.998840,62.736969 
	C67.309875,63.432762 68.759621,64.047447 68.864334,64.839867 
	C69.182037,67.244057 68.979332,69.717018 68.979332,72.471977 
	C66.989166,72.567039 65.394890,72.643188 62.885075,72.763069 
	C64.336029,69.247566 60.102974,65.136688 65.998840,62.736969 
z"/>
<path fill="#3EF2E0" opacity="1.000000" stroke="none" 
	d="
M28.958492,58.509941 
	C28.140503,59.511501 27.333704,60.079449 26.526905,60.647392 
	C26.031841,59.926414 25.151258,59.226955 25.109606,58.480671 
	C24.944477,55.522011 25.041719,52.548706 25.041719,49.580830 
	C25.453983,49.242310 25.866247,48.903790 26.278511,48.565269 
	C27.174742,49.578712 28.614866,50.481567 28.848330,51.629772 
	C29.269512,53.701214 28.968857,55.919422 28.958492,58.509941 
z"/>
<path fill="#3EF2E0" opacity="1.000000" stroke="none" 
	d="
M53.402863,49.479942 
	C54.754402,49.784992 56.627174,50.315136 56.807922,51.193481 
	C57.266060,53.419731 57.164074,55.827736 56.871025,58.109608 
	C56.752598,59.031750 55.552517,59.814987 54.844669,60.661438 
	C54.239788,59.711460 53.194611,58.796684 53.115299,57.804691 
	C52.905098,55.175484 53.112431,52.512894 53.402863,49.479942 
z"/>
<path fill="#3EECDC" opacity="1.000000" stroke="none" 
	d="
M33.998188,40.795670 
	C35.579796,42.237095 36.709305,43.678947 37.838814,45.120796 
	C37.471500,45.527794 37.104187,45.934788 36.736874,46.341782 
	C35.033737,46.341782 33.330605,46.341782 31.181105,46.341782 
	C31.733622,44.278969 28.946075,41.245232 33.998188,40.795670 
z"/>
<path fill="#3EECDC" opacity="1.000000" stroke="none" 
	d="
M46.314613,46.631653 
	C45.529465,44.890881 45.163410,43.229885 44.698490,41.120274 
	C46.962463,40.973534 48.555321,40.870293 50.354519,40.753677 
	C51.332226,44.312813 52.122780,47.376125 46.314613,46.631653 
z"/>
</svg>